<svg xmlns="http://www.w3.org/2000/svg" viewBox="0 0 250 250"><defs><style>.cls-1,.cls-2,.cls-3,.cls-4{fill:none;}.cls-2{stroke:#f49739;}.cls-2,.cls-3,.cls-4{stroke-linecap:round;stroke-width:15px;}.cls-2,.cls-3{stroke-linejoin:round;}.cls-3,.cls-4{stroke:#ffcf2b;}.cls-4{stroke-miterlimit:10;}</style></defs><g id="Layer_2" data-name="Layer 2"><g id="Small"><rect id="Bleed" class="cls-1" width="250" height="250"/><g id="Logo"><line id="_1" data-name="1" class="cls-2" x1="140.54" y1="49.33" x2="140.54" y2="49.33"/><line id="_2" data-name="2" class="cls-3" x1="140.54" y1="79.56" x2="170.77" y2="79.56"/><line id="_3" data-name="3" class="cls-2" x1="140.54" y1="109.79" x2="201" y2="109.79"/><line id="_4" data-name="4" class="cls-2" x1="170.77" y1="170.26" x2="110.31" y2="170.26"/><line id="_5" data-name="5" class="cls-4" x1="140.54" y1="200.49" x2="140.54" y2="200.49"/><path id="_6" data-name="6" class="cls-4" d="M110.31,49.33H95.19A15.11,15.11,0,0,0,80.08,64.45h0A15.1,15.1,0,0,0,95.19,79.56h0a15.12,15.12,0,0,1,15.12,15.12h0a15.11,15.11,0,0,1-15.12,15.11H65a15.11,15.11,0,0,0-15.11,15.12h0A15.1,15.1,0,0,0,65,140h75.58"/><path id="_7" data-name="7" class="cls-2" d="M110.31,170.26H95.19a15.1,15.1,0,0,0-15.11,15.11h0a15.11,15.11,0,0,0,15.11,15.12h15.12"/><line id="_8" data-name="8" class="cls-4" x1="170.77" y1="140.02" x2="201" y2="140.02"/></g></g></g></svg>